<?xml version="1.0" encoding="utf-8"?>
<!-- Generator: Adobe Illustrator 18.0.0, SVG Export Plug-In . SVG Version: 6.00 Build 0)  -->
<!DOCTYPE svg PUBLIC "-//W3C//DTD SVG 1.1//EN" "http://www.w3.org/Graphics/SVG/1.1/DTD/svg11.dtd">
<svg version="1.1" id="svg2" xmlns="http://www.w3.org/2000/svg" xmlns:xlink="http://www.w3.org/1999/xlink" x="0px" y="0px"
	 viewBox="0 114.8 640 250.4" enable-background="new 0 114.8 640 250.4" xml:space="preserve">
<g>
	<path fill="#FFFFFF" d="M158,312.3c0,5,4.9,9.9,9.7,9.9c5,0,8.3-1.7,9.9-3.2v-18.2C167.7,300.7,158,304.1,158,312.3z"/>
	<path fill="#FFFFFF" d="M0,114.8v250.4l0,0h640V114.8H0z M75.5,328.7H32.9v-3.2h6.5c4.9-1.7,4.9-1.7,4.9-6.7v-16.4v-33v-16.4
		c0-5,0-5-4.9-5c-6.5-1.7-6.5-1.7-6.5-1.7v-3.5h34.6c14.8,0,29.6,5,29.6,19.8c0,11.5-11.4,18.2-18,19.8c13.2,1.7,26.4,8.2,26.4,21.4
		C105.2,320.5,92,328.7,75.5,328.7z M141.4,328.7h-29.7v-3.2h3.2c5-1.7,5-1.7,5-6.7v-16.4v-51.2c0-4.9-1.7-6.7-6.7-6.7h-4.9v-3.1
		c8.2,0,16.5-1.7,23-3.2v24.6v39.6l0,0v16.4c0,5,1.7,5,5,6.7h4.9v3.2H141.4z M185.9,328.7c-4.9,0-6.5-3.2-8.2-6.7l0,0
		c-4.9,3.5-9.9,6.7-16.4,6.7c-8.3,0-13.2-6.7-13.2-13.1c0-13.2,14.8-16.5,29.7-18.2v-14.7c0-5-3.2-8.3-8.3-8.3
		c-4.9,0-6.5,1.7-8.2,4.9c-1.7,5-3.2,6.7-6.5,6.7c-3.3,0-5-1.7-5-3.2c0-6.7,13.2-11.6,21.4-11.6c13.2,0,18,3.3,18,13.2v31.4
		c0,3.2,1.8,4.9,5,4.9s4.9-1.7,6.5-1.7l1.7,1.7C197.4,325.5,192.5,328.7,185.9,328.7z M230.3,328.7c-14.8,0-24.8-13.1-24.8-28
		c0-16.4,9.9-29.6,28-29.6c9.7,0,18,3.3,18,8.2l0,0c0,3.5-1.7,5-4.9,5c-3.5,0-5-3.2-6.7-5c-1.7-3.2-4.9-4.9-8.2-4.9
		c-9.9,0-16.5,8.3-16.5,21.4c0,14.7,8.2,24.6,21.4,24.6c6.5,0,11.5-1.7,14.8-4.9l1.7,1.7C246.8,325.5,238.5,328.7,230.3,328.7z
		 M320.8,328.7h-28v-3.2h4.9c1.8,0,1.8-1.7,0-3.5c-8.2-9.9-8.2-9.9-8.2-9.9c-6.5-6.5-9.9-11.5-11.5-11.5v1.8l0,0v16.4
		c0,5,1.7,5,5,6.7h4.9v3.2h-31.4v-3.2h4.9c5-1.7,5-1.7,5-6.7v-16.4v-51.2c0-4.9-1.7-6.7-6.7-6.7h-4.9v-3.1c8.3,0,16.5-1.7,23-3.2
		v24.6v36.2l21.5-19.8c1.7-1.7,0-3.2-1.8-4.9h-4.9v-3.3h24.7v3.3c-6.7,0-8.3,1.7-11.5,4.9l-18,16.5c23,24.6,23,24.6,23,24.6
		c3.2,3.5,4.9,5,9.9,5v3.3H320.8z M345.5,328.7c-6.5,0-9.9-1.7-13.2-1.7c0,0-1.7,0-3.2,1.7h-1.7v-19.6h1.7
		c3.2,11.4,8.3,16.4,16.5,16.4c8.3,0,11.5-3.5,11.5-8.2c0-5-1.7-8.2-13.2-11.5c-8.2-3.2-14.8-8.2-14.8-18c0-11.5,10-16.5,19.7-16.5
		c6.7,0,9.9,1.7,11.5,1.7l3.2-1.7h1.7v18.2H362c-1.7-10-4.9-14.8-13.2-14.8c-6.5,0-11.4,3.2-11.4,8.3c0,6.5,3.2,8.2,13.1,11.4
		c10,5,16.5,8.3,16.5,16.5C366.8,323.8,357,328.7,345.5,328.7z M411.4,277.8h-18.2V314c0,6.5,3.2,8.2,8.2,8.2c3.2,0,4.9,0,10-3.2
		v1.7c-5,6.7-10,8.2-16.5,8.2c-8.3,0-13.2-4.9-13.2-11.4l0,0v-39.6h-6.5v-1.8c6.5-5,11.4-9.9,16.4-18.2h1.7v14.7h18.2L411.4,277.8
		L411.4,277.8z M446,328.7c-14.8,0-29.7-9.9-29.7-28c0-18,14.8-29.6,29.7-29.6c14.6,0,29.6,11.6,29.6,29.6
		C475.4,317.3,460.5,328.7,446,328.7z M547.8,328.7h-29.6v-3.2h3.3c4.9-1.7,4.9-1.7,4.9-6.7v-16.4v-11.5c0-8.2-3.2-13.2-9.7-13.2
		c-8.3,0-11.5,3.3-14.8,5v19.7v16.4c0,5,1.7,5,4.9,6.7h4.9v3.2h-31.2v-3.2h4.9c4.9-1.7,4.9-1.7,4.9-6.7v-16.4v-14.7
		c0-6.7-1.7-10-6.5-10h-3.2v-3.2c8.2,0,14.7-1.8,21.4-5v9.9c6.5-4.9,13.1-8.2,21.4-8.2c9.7,0,16.5,6.7,16.5,16.5v14.7v16.4
		c0,5,0,5,4.9,6.7h3.3L547.8,328.7L547.8,328.7z M583.9,320.5c8.3,0,14.8-3.2,16.5-4.9l1.7,1.7c-6.5,6.7-14.8,11.4-24.6,11.4
		c-14.8,0-24.8-13.1-24.8-28l0,0c0-14.7,10-29.6,26.4-29.6c13.2,0,21.4,10,23,23h-39.4C562.7,309.1,569.2,320.5,583.9,320.5z"/>
	<path fill="#FFFFFF" d="M83.8,264.6c0-9.9-6.7-18-18-18c-3.5,0-8.3,1.7-8.3,1.7l0,0v34.6h8.3C77.2,282.8,83.8,277.8,83.8,264.6z"/>
	<path fill="#FFFFFF" d="M444.3,274.4c-10,0-14.8,11.5-14.8,24.7c0,14.8,4.9,26.4,16.5,26.4c11.4,0,16.4-11.5,16.4-24.8l0,0
		C462.3,286,455.7,274.4,444.3,274.4z"/>
	<path fill="#FFFFFF" d="M65.8,286h-8.3v29.7c0,8.2,4.9,9.9,14.8,9.9c13.2,0,19.7-8.2,19.7-21.4S78.8,286,65.8,286z"/>
	<path fill="#FFFFFF" d="M577.5,274.4c-8.3,0-13.2,8.3-13.2,16.4h26.5C590.7,282.8,585.6,274.4,577.5,274.4z"/>
</g>
</svg>
