<?xml version="1.0" encoding="utf-8"?>
<!-- Generator: Adobe Illustrator 18.0.0, SVG Export Plug-In . SVG Version: 6.00 Build 0)  -->
<!DOCTYPE svg PUBLIC "-//W3C//DTD SVG 1.1//EN" "http://www.w3.org/Graphics/SVG/1.1/DTD/svg11.dtd">
<svg version="1.1" id="Layer_1" xmlns="http://www.w3.org/2000/svg" xmlns:xlink="http://www.w3.org/1999/xlink" x="0px" y="0px"
	 viewBox="0 0 379.3 157.1" enable-background="new 0 0 379.3 157.1" xml:space="preserve">
<g>
	<path fill="#FFFFFF" d="M0.8,0.5h7.1V20H4.8V3.4h-4V0.5z"/>
	<path fill="#FFFFFF" d="M17.1,17.5c-1.3-1.8-2-4.3-2-7.4s0.7-5.5,2-7.4c1.3-1.8,3.3-2.8,6-2.8c2.7,0,4.7,0.9,6,2.8
		c1.3,1.8,2,4.3,2,7.4s-0.7,5.5-2,7.4c-1.3,1.8-3.3,2.8-6,2.8C20.4,20.3,18.4,19.4,17.1,17.5z M19.5,4.8c-0.8,1.3-1.2,3.1-1.2,5.3
		s0.4,3.9,1.2,5.3c0.8,1.3,2,2,3.6,2s2.8-0.7,3.6-2c0.8-1.3,1.1-3.1,1.1-5.3c0-2.2-0.4-4-1.1-5.3c-0.8-1.3-2-2-3.6-2
		S20.2,3.5,19.5,4.8z"/>
	<path fill="#FFFFFF" d="M57.7,17.1c1.1,0,2.1-0.2,2.9-0.6c0.8-0.4,1.7-1,2.6-1.8l2.1,2.2c-2.1,2.3-4.6,3.4-7.5,3.4
		c-3,0-5.4-1-7.4-2.9c-2-1.9-2.9-4.3-2.9-7.2s1-5.3,3-7.3C52.4,1,54.9,0,58,0s5.6,1.1,7.6,3.4l-2.1,2.3c-0.9-0.9-1.8-1.5-2.6-1.9
		C60,3.4,59,3.2,57.9,3.2c-2,0-3.6,0.6-5,1.9c-1.3,1.3-2,2.9-2,4.9c0,2,0.7,3.6,2,5C54.2,16.4,55.8,17.1,57.7,17.1z"/>
	<path fill="#FFFFFF" d="M74.9,15.6l-2,4.5h-3.5L78,0.5h3.5L90.2,20h-3.5l-2-4.5H74.9z M83.4,12.5l-3.6-8.1l-3.6,8.1H83.4z"/>
	<path fill="#FFFFFF" d="M101.6,3.5V20h-3.3V3.5h-5.9v-3h15.2v3H101.6z"/>
	<path fill="#FFFFFF" d="M127.6,0.5v3.1h-10.4v5.2h9.4v2.9h-9.4v5.2H128V20h-14.1V0.5H127.6z"/>
	<path fill="#FFFFFF" d="M148.5,10.5h3.3v6.7c-1.8,2-4.5,3.1-7.9,3.1c-2.9,0-5.3-1-7.3-2.9c-2-1.9-2.9-4.3-2.9-7.2s1-5.3,3-7.3
		c2-1.9,4.4-2.9,7.2-2.9c2.8,0,5.2,0.8,7,2.5L149.2,5c-0.8-0.7-1.5-1.1-2.3-1.4s-1.7-0.4-2.7-0.4c-2,0-3.6,0.6-5,1.9
		c-1.3,1.3-2,3-2,5s0.7,3.8,2,5c1.3,1.3,2.9,1.9,4.7,1.9c1.9,0,3.4-0.4,4.7-1.2V10.5z"/>
	<path fill="#FFFFFF" d="M175.4,17.3c-2,1.9-4.4,2.9-7.3,2.9s-5.4-1-7.3-2.9c-2-1.9-3-4.3-3-7.2c0-2.9,1-5.3,3-7.2S165.1,0,168,0
		s5.4,1,7.3,2.9s3,4.3,3,7.2C178.3,13,177.3,15.4,175.4,17.3z M172.9,5.1C171.6,3.7,170,3,168,3s-3.6,0.7-4.9,2.1
		c-1.3,1.4-2,3.1-2,5s0.7,3.6,2,5s3,2.1,4.9,2.1s3.6-0.7,4.9-2.1s2-3.1,2-5S174.3,6.5,172.9,5.1z"/>
	<path fill="#FFFFFF" d="M200.9,6.8c0,3.2-1.4,5.3-4.2,6.1l5.1,7.1h-4.2l-4.7-6.6h-4.3V20h-3.3V0.5h7.3c3,0,5.1,0.5,6.4,1.5
		C200.3,3,200.9,4.6,200.9,6.8z M196.5,9.6c0.7-0.6,1-1.5,1-2.8c0-1.3-0.3-2.2-1-2.6c-0.7-0.5-1.9-0.7-3.7-0.7h-4.2v7h4.1
		C194.6,10.5,195.9,10.2,196.5,9.6z"/>
	<path fill="#FFFFFF" d="M208.5,0.5h3.3V20h-3.3V0.5z"/>
	<path fill="#FFFFFF" d="M233.8,0.5v3.1h-10.4v5.2h9.4v2.9h-9.4v5.2h10.8V20H220V0.5H233.8z"/>
	<path fill="#FFFFFF" d="M247.1,3.1c-1,0-1.8,0.2-2.4,0.6c-0.6,0.4-0.9,1-0.9,1.8s0.3,1.4,0.9,1.8s1.9,0.9,3.9,1.4
		c2,0.5,3.5,1.2,4.5,2c1,0.9,1.5,2.2,1.5,3.9s-0.6,3.1-1.9,4.2c-1.3,1.1-3,1.6-5.1,1.6c-3.1,0-5.8-1.1-8.1-3.2l2.1-2.5
		c2,1.7,4,2.6,6.2,2.6c1.1,0,1.9-0.2,2.5-0.7c0.6-0.5,0.9-1.1,0.9-1.8c0-0.8-0.3-1.3-0.9-1.8s-1.6-0.8-3-1.1c-1.4-0.3-2.5-0.7-3.3-1
		c-0.7-0.3-1.4-0.7-2-1.1c-1.2-0.9-1.7-2.2-1.7-4c0-1.8,0.7-3.2,2-4.2s2.9-1.5,4.9-1.5c1.2,0,2.5,0.2,3.7,0.6c1.2,0.4,2.3,1,3.2,1.7
		l-1.8,2.5c-0.6-0.5-1.4-1-2.4-1.3C249,3.2,248,3.1,247.1,3.1z"/>
	<path fill="#FFFFFF" d="M261.3,19.7c-0.4-0.4-0.6-0.9-0.6-1.5s0.2-1.1,0.6-1.5c0.4-0.4,0.9-0.6,1.5-0.6c0.6,0,1.1,0.2,1.5,0.6
		c0.4,0.4,0.6,0.9,0.6,1.5s-0.2,1.1-0.6,1.5c-0.4,0.4-0.9,0.6-1.5,0.6C262.2,20.3,261.7,20.1,261.3,19.7z"/>
	<path fill="#FFFFFF" d="M7.9,67.7v-2c-2.6-0.3-4.9-1.3-6.9-3.1l2-2.4c1.6,1.4,3.2,2.2,4.8,2.4v-5.4c-2.1-0.5-3.7-1.2-4.6-2
		c-1-0.8-1.5-2-1.5-3.7s0.6-2.9,1.7-4c1.1-1,2.6-1.6,4.4-1.7v-1.4h1.8v1.4c2.1,0.1,4,0.8,5.8,2.1l-1.8,2.6c-1.2-0.9-2.6-1.4-4-1.6
		v5.3h0.1c2.1,0.5,3.7,1.2,4.7,2c1,0.9,1.5,2.1,1.5,3.7c0,1.6-0.6,3-1.7,4c-1.2,1-2.7,1.6-4.6,1.7v2H7.9z M6,49.6
		c-0.5,0.4-0.7,0.9-0.7,1.6c0,0.6,0.2,1.1,0.6,1.5c0.4,0.4,1.1,0.7,2.1,1v-4.8C7.1,48.9,6.4,49.2,6,49.6z M11.8,61.9
		c0.5-0.4,0.8-1,0.8-1.6s-0.2-1.2-0.6-1.6c-0.4-0.4-1.2-0.7-2.3-1.1v5C10.6,62.6,11.3,62.3,11.8,61.9z"/>
	<path fill="#FFFFFF" d="M20.9,46.1h7.1v19.6h-3.1V49h-4V46.1z"/>
	<path fill="#FFFFFF" d="M37.2,63.1c-1.3-1.8-2-4.3-2-7.4s0.7-5.5,2-7.4c1.3-1.8,3.3-2.8,6-2.8c2.7,0,4.7,0.9,6,2.8
		c1.3,1.8,2,4.3,2,7.4s-0.7,5.5-2,7.4c-1.3,1.8-3.3,2.8-6,2.8C40.6,65.9,38.6,65,37.2,63.1z M39.6,50.4c-0.8,1.3-1.2,3.1-1.2,5.3
		s0.4,3.9,1.2,5.3c0.8,1.3,2,2,3.6,2s2.8-0.7,3.6-2c0.8-1.3,1.1-3.1,1.1-5.3c0-2.2-0.4-4-1.1-5.3c-0.8-1.3-2-2-3.6-2
		S40.4,49.1,39.6,50.4z"/>
	<path fill="#FFFFFF" d="M57.5,63.8c0-0.6,0.2-1.1,0.6-1.5c0.4-0.4,0.9-0.6,1.5-0.6c0.6,0,1,0.2,1.5,0.6s0.6,0.9,0.6,1.4
		s-0.3,1.2-0.8,2l-1.7,2.8h-1.6l1-2.9C57.9,65.3,57.5,64.7,57.5,63.8z"/>
	<path fill="#FFFFFF" d="M70,63.1c-1.3-1.8-2-4.3-2-7.4s0.7-5.5,2-7.4c1.3-1.8,3.3-2.8,6-2.8c2.7,0,4.7,0.9,6,2.8
		c1.3,1.8,2,4.3,2,7.4s-0.7,5.5-2,7.4c-1.3,1.8-3.3,2.8-6,2.8C73.3,65.9,71.3,65,70,63.1z M72.3,50.4c-0.8,1.3-1.2,3.1-1.2,5.3
		s0.4,3.9,1.2,5.3c0.8,1.3,2,2,3.6,2s2.8-0.7,3.6-2c0.8-1.3,1.1-3.1,1.1-5.3c0-2.2-0.4-4-1.1-5.3c-0.8-1.3-2-2-3.6-2
		S73.1,49.1,72.3,50.4z"/>
	<path fill="#FFFFFF" d="M92,63.1c-1.3-1.8-2-4.3-2-7.4s0.7-5.5,2-7.4c1.3-1.8,3.3-2.8,6-2.8c2.7,0,4.7,0.9,6,2.8
		c1.3,1.8,2,4.3,2,7.4s-0.7,5.5-2,7.4c-1.3,1.8-3.3,2.8-6,2.8C95.4,65.9,93.4,65,92,63.1z M94.4,50.4c-0.8,1.3-1.2,3.1-1.2,5.3
		s0.4,3.9,1.2,5.3c0.8,1.3,2,2,3.6,2s2.8-0.7,3.6-2c0.8-1.3,1.1-3.1,1.1-5.3c0-2.2-0.4-4-1.1-5.3c-0.8-1.3-2-2-3.6-2
		S95.2,49.1,94.4,50.4z"/>
	<path fill="#FFFFFF" d="M114.1,63.1c-1.3-1.8-2-4.3-2-7.4s0.7-5.5,2-7.4c1.3-1.8,3.3-2.8,6-2.8c2.7,0,4.7,0.9,6,2.8
		c1.3,1.8,2,4.3,2,7.4s-0.7,5.5-2,7.4c-1.3,1.8-3.3,2.8-6,2.8C117.4,65.9,115.4,65,114.1,63.1z M116.5,50.4
		c-0.8,1.3-1.2,3.1-1.2,5.3s0.4,3.9,1.2,5.3c0.8,1.3,2,2,3.6,2s2.8-0.7,3.6-2c0.8-1.3,1.1-3.1,1.1-5.3c0-2.2-0.4-4-1.1-5.3
		c-0.8-1.3-2-2-3.6-2S117.2,49.1,116.5,50.4z"/>
	<path fill="#FFFFFF" d="M134.7,65.3c-0.4-0.4-0.6-0.9-0.6-1.5s0.2-1.1,0.6-1.5c0.4-0.4,0.9-0.6,1.5-0.6c0.6,0,1.1,0.2,1.5,0.6
		c0.4,0.4,0.6,0.9,0.6,1.5s-0.2,1.1-0.6,1.5c-0.4,0.4-0.9,0.6-1.5,0.6C135.6,65.9,135.1,65.7,134.7,65.3z"/>
	<path fill="#FFFFFF" d="M0.8,91.7h7.1v19.6H4.8V94.6h-4V91.7z"/>
	<path fill="#FFFFFF" d="M39.9,93.4c1.4,1.1,2,2.9,2,5.3s-0.7,4.1-2.1,5.2c-1.4,1.1-3.5,1.7-6.4,1.7H30v5.7h-3.3V91.7h6.7
		C36.3,91.7,38.5,92.2,39.9,93.4z M37.5,101.5c0.7-0.7,1-1.7,1-3.1c0-1.4-0.4-2.3-1.3-2.9c-0.8-0.6-2.2-0.8-3.9-0.8H30v7.8h3.8
		C35.6,102.5,36.9,102.2,37.5,101.5z"/>
	<path fill="#FFFFFF" d="M48.6,91.7h3.3v19.6h-3.3V91.7z"/>
	<path fill="#FFFFFF" d="M67.5,94.7v16.5h-3.3V94.7h-5.9v-3h15.2v3H67.5z"/>
	<path fill="#FFFFFF" d="M88.8,108.3c1.1,0,2.1-0.2,2.9-0.6c0.8-0.4,1.7-1,2.6-1.8l2.1,2.2c-2.1,2.3-4.6,3.4-7.5,3.4
		c-3,0-5.4-1-7.4-2.9s-2.9-4.3-2.9-7.2s1-5.3,3-7.3c2-1.9,4.5-2.9,7.5-2.9s5.6,1.1,7.6,3.4l-2.1,2.3C93.7,96,92.8,95.3,92,95
		c-0.8-0.4-1.8-0.5-2.9-0.5c-2,0-3.6,0.6-5,1.9s-2,2.9-2,4.9s0.7,3.7,2,5C85.4,107.6,87,108.3,88.8,108.3z"/>
	<path fill="#FFFFFF" d="M103.3,111.2V91.7h3.3v8.5h9.7v-8.5h3.3v19.6h-3.3v-8h-9.7v8H103.3z"/>
	<path fill="#FFFFFF" d="M147.2,108.3c1.1,0,2.1-0.2,2.9-0.6c0.8-0.4,1.7-1,2.6-1.8l2.1,2.2c-2.1,2.3-4.6,3.4-7.5,3.4
		c-3,0-5.4-1-7.4-2.9s-2.9-4.3-2.9-7.2s1-5.3,3-7.3c2-1.9,4.5-2.9,7.5-2.9s5.6,1.1,7.6,3.4l-2.1,2.3c-0.9-0.9-1.8-1.5-2.6-1.9
		c-0.8-0.4-1.8-0.5-2.9-0.5c-2,0-3.6,0.6-5,1.9s-2,2.9-2,4.9s0.7,3.7,2,5C143.8,107.6,145.4,108.3,147.2,108.3z"/>
	<path fill="#FFFFFF" d="M177.7,108.5c-2,1.9-4.4,2.9-7.3,2.9s-5.4-1-7.3-2.9c-2-1.9-3-4.3-3-7.2c0-2.9,1-5.3,3-7.2
		c2-1.9,4.4-2.9,7.3-2.9s5.4,1,7.3,2.9c2,1.9,3,4.3,3,7.2C180.6,104.2,179.6,106.6,177.7,108.5z M175.2,96.3c-1.3-1.4-3-2.1-4.9-2.1
		s-3.6,0.7-4.9,2.1c-1.3,1.4-2,3.1-2,5s0.7,3.6,2,5c1.3,1.4,3,2.1,4.9,2.1s3.6-0.7,4.9-2.1c1.3-1.4,2-3.1,2-5S176.6,97.7,175.2,96.3
		z"/>
	<path fill="#FFFFFF" d="M190.9,111.2h-3.3V91.7h5.2l5.9,12.3l5.9-12.3h5.1v19.6h-3.3V96l-6.8,13.6h-1.8L190.9,96V111.2z"/>
	<path fill="#FFFFFF" d="M231.1,93.4c1.4,1.1,2,2.9,2,5.3s-0.7,4.1-2.1,5.2c-1.4,1.1-3.5,1.7-6.4,1.7h-3.5v5.7h-3.3V91.7h6.7
		C227.6,91.7,229.8,92.2,231.1,93.4z M228.8,101.5c0.7-0.7,1-1.7,1-3.1c0-1.4-0.4-2.3-1.3-2.9c-0.8-0.6-2.2-0.8-3.9-0.8h-3.4v7.8
		h3.8C226.9,102.5,228.1,102.2,228.8,101.5z"/>
	<path fill="#FFFFFF" d="M253.6,91.7v3.1h-10.4v5.2h9.4v2.9h-9.4v5.2H254v3.1h-14.1V91.7H253.6z"/>
	<path fill="#FFFFFF" d="M268.4,94.7v16.5h-3.3V94.7h-5.9v-3h15.2v3H268.4z"/>
	<path fill="#FFFFFF" d="M280.7,91.7h3.3v19.6h-3.3V91.7z"/>
	<path fill="#FFFFFF" d="M299.6,94.7v16.5h-3.3V94.7h-5.9v-3h15.2v3H299.6z"/>
	<path fill="#FFFFFF" d="M311.9,91.7h3.3v19.6h-3.3V91.7z"/>
	<path fill="#FFFFFF" d="M339.9,108.5c-2,1.9-4.4,2.9-7.3,2.9s-5.4-1-7.3-2.9c-2-1.9-3-4.3-3-7.2c0-2.9,1-5.3,3-7.2
		c2-1.9,4.4-2.9,7.3-2.9s5.4,1,7.3,2.9c2,1.9,3,4.3,3,7.2C342.8,104.2,341.8,106.6,339.9,108.5z M337.4,96.3c-1.3-1.4-3-2.1-4.9-2.1
		s-3.6,0.7-4.9,2.1c-1.3,1.4-2,3.1-2,5s0.7,3.6,2,5c1.3,1.4,3,2.1,4.9,2.1s3.6-0.7,4.9-2.1c1.3-1.4,2-3.1,2-5S338.8,97.7,337.4,96.3
		z"/>
	<path fill="#FFFFFF" d="M364.5,91.7h3.3v19.6h-3.6L353.1,97v14.3h-3.3V91.7h3.3l11.4,14.6V91.7z"/>
	<path fill="#FFFFFF" d="M375.7,110.9c-0.4-0.4-0.6-0.9-0.6-1.5c0-0.6,0.2-1.1,0.6-1.5c0.4-0.4,0.9-0.6,1.5-0.6s1.1,0.2,1.5,0.6
		s0.6,0.9,0.6,1.5c0,0.6-0.2,1.1-0.6,1.5c-0.4,0.4-0.9,0.6-1.5,0.6S376.1,111.3,375.7,110.9z"/>
	<path fill="#FCBE31" d="M3.9,153.7l-1.4,3.2H0l6.2-14h2.5l6.2,14h-2.5l-1.4-3.2H3.9z M10,151.5l-2.5-5.8l-2.5,5.8H10z"/>
	<path fill="#FCBE31" d="M23,145v11.8h-2.4V145h-4.2v-2.2h10.8v2.2H23z"/>
	<path fill="#FCBE31" d="M47.4,152.4c0.9,1,2.1,1.6,3.6,1.6c1.5,0,2.7-0.5,3.6-1.6c0.9-1,1.3-2.5,1.3-4.3v-10.8h3.3v11
		c0,2.8-0.8,5-2.3,6.5s-3.5,2.3-6,2.3s-4.4-0.8-6-2.3c-1.5-1.5-2.3-3.7-2.3-6.5v-11h3.3v10.8C46.1,149.9,46.5,151.3,47.4,152.4z"/>
	<path fill="#FCBE31" d="M73.2,139.9c-1,0-1.8,0.2-2.4,0.6c-0.6,0.4-0.9,1-0.9,1.8c0,0.8,0.3,1.4,0.9,1.8c0.6,0.4,1.9,0.9,3.9,1.4
		c2,0.5,3.5,1.2,4.5,2c1,0.9,1.5,2.2,1.5,3.9s-0.6,3.1-1.9,4.2c-1.3,1.1-3,1.6-5.1,1.6c-3.1,0-5.8-1.1-8.1-3.2l2.1-2.5
		c2,1.7,4,2.6,6.2,2.6c1.1,0,1.9-0.2,2.5-0.7c0.6-0.5,0.9-1.1,0.9-1.8s-0.3-1.3-0.9-1.8c-0.6-0.4-1.6-0.8-3-1.1
		c-1.4-0.3-2.5-0.7-3.3-1c-0.7-0.3-1.4-0.7-2-1.1c-1.2-0.9-1.7-2.2-1.7-4s0.7-3.2,2-4.2c1.3-1,2.9-1.5,4.9-1.5
		c1.3,0,2.5,0.2,3.7,0.6c1.2,0.4,2.3,1,3.2,1.7l-1.8,2.5c-0.6-0.5-1.4-1-2.4-1.3C75.2,140,74.2,139.9,73.2,139.9z"/>
	<path fill="#FCBE31" d="M96.7,153.9c1.1,0,2.1-0.2,2.9-0.6c0.8-0.4,1.7-1,2.6-1.8l2.1,2.2c-2.1,2.3-4.6,3.4-7.5,3.4
		c-3,0-5.4-1-7.4-2.9s-2.9-4.3-2.9-7.2c0-2.9,1-5.3,3-7.3c2-1.9,4.5-2.9,7.5-2.9s5.6,1.1,7.6,3.4l-2.1,2.3c-0.9-0.9-1.8-1.5-2.6-1.9
		c-0.8-0.4-1.8-0.5-2.9-0.5c-2,0-3.6,0.6-5,1.9s-2,2.9-2,4.9c0,2,0.7,3.7,2,5C93.3,153.2,94.9,153.9,96.7,153.9z"/>
	<path fill="#FCBE31" d="M110.9,156.5c-0.4-0.4-0.6-0.9-0.6-1.5c0-0.6,0.2-1.1,0.6-1.5s0.9-0.6,1.5-0.6c0.6,0,1.1,0.2,1.5,0.6
		c0.4,0.4,0.6,0.9,0.6,1.5c0,0.6-0.2,1.1-0.6,1.5c-0.4,0.4-0.9,0.6-1.5,0.6C111.8,157.1,111.3,156.9,110.9,156.5z"/>
</g>
</svg>
