<?xml version="1.0" encoding="utf-8"?>
<!-- Generator: Adobe Illustrator 18.1.0, SVG Export Plug-In . SVG Version: 6.00 Build 0)  -->
<!DOCTYPE svg PUBLIC "-//W3C//DTD SVG 1.1//EN" "http://www.w3.org/Graphics/SVG/1.1/DTD/svg11.dtd">
<svg version="1.1" id="Layer_1" xmlns="http://www.w3.org/2000/svg" xmlns:xlink="http://www.w3.org/1999/xlink" x="0px" y="0px"
	 viewBox="0 0 379.3 157.1" enable-background="new 0 0 379.3 157.1" xml:space="preserve">
<g>
	<path fill="#FFFFFF" d="M7.4,17.4c1.7,0,3-0.6,3.8-1.8c0.8-1.2,1.2-2.8,1.3-4.8c-0.5,0.5-1.1,1-2,1.5C9.7,12.8,8.7,13,7.6,13
		c-1.8,0-3.2-0.6-4.4-1.8S1.4,8.5,1.4,6.6c0-1.9,0.6-3.5,1.9-4.7c1.3-1.2,2.9-1.8,4.8-1.8c3.1,0,5.3,1.4,6.5,4.2
		c0.7,1.6,1,3.4,1,5.4c0,2-0.2,3.7-0.6,5c-0.4,1.3-1,2.4-1.8,3.2c-1.5,1.5-3.2,2.3-5.4,2.3c-2.1,0-4-0.7-5.8-2l1.7-2.4
		c0.4,0.4,1,0.7,1.7,1C6.2,17.2,6.9,17.4,7.4,17.4z M8,10.1c1.1,0,2.1-0.3,2.8-0.9S12,7.7,12,6.7s-0.4-1.9-1.1-2.6
		C10.2,3.4,9.3,3,8.2,3c-1.1,0-2,0.3-2.7,1C4.8,4.7,4.4,5.5,4.4,6.5c0,1,0.3,1.9,1,2.5C6,9.7,6.9,10.1,8,10.1z"/>
	<path fill="#FFFFFF" d="M42.3,17.1c1.1,0,2.1-0.2,2.9-0.6c0.8-0.4,1.7-1,2.6-1.8l2.1,2.2c-2.1,2.3-4.6,3.4-7.5,3.4
		c-3,0-5.4-1-7.4-2.9c-2-1.9-2.9-4.3-2.9-7.2s1-5.3,3-7.3C37,1,39.5,0,42.6,0s5.6,1.1,7.6,3.4l-2.1,2.3c-0.9-0.9-1.8-1.5-2.6-1.9
		c-0.8-0.4-1.8-0.5-2.9-0.5c-2,0-3.6,0.6-5,1.9c-1.3,1.3-2,2.9-2,4.9c0,2,0.7,3.6,2,5C38.8,16.4,40.4,17.1,42.3,17.1z"/>
	<path fill="#FFFFFF" d="M59.5,15.6l-2,4.5H54l8.6-19.6h3.5l8.6,19.6h-3.5l-2-4.5H59.5z M68,12.6l-3.6-8.1l-3.6,8.1H68z"/>
	<path fill="#FFFFFF" d="M86.2,3.5v16.5h-3.3V3.5h-5.9v-3h15.2v3H86.2z"/>
	<path fill="#FFFFFF" d="M112.2,0.5v3.1h-10.4v5.2h9.4v2.9h-9.4V17h10.8v3.1H98.5V0.5H112.2z"/>
	<path fill="#FFFFFF" d="M133.1,10.6h3.3v6.7c-1.8,2-4.5,3.1-7.9,3.1c-2.9,0-5.3-1-7.3-2.9c-2-1.9-2.9-4.3-2.9-7.2s1-5.3,3-7.3
		c2-1.9,4.4-2.9,7.2-2.9c2.8,0,5.2,0.8,7,2.5L133.8,5c-0.8-0.7-1.5-1.1-2.3-1.4s-1.7-0.4-2.7-0.4c-2,0-3.6,0.6-5,1.9
		c-1.3,1.3-2,3-2,5s0.7,3.8,2,5c1.3,1.3,2.9,1.9,4.7,1.9c1.9,0,3.4-0.4,4.7-1.2V10.6z"/>
	<path fill="#FFFFFF" d="M160,17.4c-2,1.9-4.4,2.9-7.3,2.9s-5.4-1-7.3-2.9c-2-1.9-3-4.3-3-7.2c0-2.9,1-5.3,3-7.2s4.4-2.9,7.3-2.9
		s5.4,1,7.3,2.9s3,4.3,3,7.2C162.9,13.1,161.9,15.5,160,17.4z M157.5,5.1c-1.3-1.4-3-2.1-4.9-2.1s-3.6,0.7-4.9,2.1
		c-1.3,1.4-2,3.1-2,5s0.7,3.6,2,5s3,2.1,4.9,2.1s3.6-0.7,4.9-2.1s2-3.1,2-5S158.9,6.5,157.5,5.1z"/>
	<path fill="#FFFFFF" d="M185.5,6.9c0,3.2-1.4,5.3-4.2,6.1l5.1,7.1h-4.2l-4.7-6.6h-4.3v6.6h-3.3V0.5h7.3c3,0,5.1,0.5,6.4,1.5
		C184.9,3,185.5,4.7,185.5,6.9z M181.1,9.7c0.7-0.6,1-1.5,1-2.8c0-1.3-0.3-2.2-1-2.6c-0.7-0.5-1.9-0.7-3.7-0.7h-4.2v7h4.1
		C179.2,10.5,180.5,10.2,181.1,9.7z"/>
	<path fill="#FFFFFF" d="M193.1,0.5h3.3v19.6h-3.3V0.5z"/>
	<path fill="#FFFFFF" d="M218.4,0.5v3.1h-10.4v5.2h9.4v2.9h-9.4V17h10.8v3.1h-14.1V0.5H218.4z"/>
	<path fill="#FFFFFF" d="M231.7,3.1c-1,0-1.8,0.2-2.4,0.6c-0.6,0.4-0.9,1-0.9,1.8s0.3,1.4,0.9,1.8s1.9,0.9,3.9,1.4
		c2,0.5,3.5,1.2,4.5,2c1,0.9,1.5,2.2,1.5,3.9s-0.6,3.1-1.9,4.2c-1.3,1.1-3,1.6-5.1,1.6c-3.1,0-5.8-1.1-8.1-3.2l2.1-2.5
		c2,1.7,4,2.6,6.2,2.6c1.1,0,1.9-0.2,2.5-0.7c0.6-0.5,0.9-1.1,0.9-1.8c0-0.8-0.3-1.3-0.9-1.8s-1.6-0.8-3-1.1c-1.4-0.3-2.5-0.7-3.3-1
		c-0.7-0.3-1.4-0.7-2-1.1c-1.2-0.9-1.7-2.2-1.7-4c0-1.8,0.7-3.2,2-4.2s2.9-1.5,4.9-1.5c1.2,0,2.5,0.2,3.7,0.6c1.2,0.4,2.3,1,3.2,1.7
		l-1.8,2.5c-0.6-0.5-1.4-1-2.4-1.3C233.6,3.3,232.6,3.1,231.7,3.1z"/>
	<path fill="#FFFFFF" d="M245.9,19.7c-0.4-0.4-0.6-0.9-0.6-1.5s0.2-1.1,0.6-1.5c0.4-0.4,0.9-0.6,1.5-0.6c0.6,0,1.1,0.2,1.5,0.6
		c0.4,0.4,0.6,0.9,0.6,1.5s-0.2,1.1-0.6,1.5c-0.4,0.4-0.9,0.6-1.5,0.6C246.8,20.3,246.3,20.1,245.9,19.7z"/>
	<path fill="#FFFFFF" d="M7.9,67.7v-2c-2.6-0.3-4.9-1.3-6.9-3.1l2-2.4c1.6,1.4,3.2,2.2,4.8,2.4v-5.4c-2.1-0.5-3.7-1.2-4.6-2
		c-1-0.8-1.5-2-1.5-3.7s0.6-2.9,1.7-4c1.1-1,2.6-1.6,4.4-1.7v-1.4h1.8v1.4c2.1,0.1,4,0.8,5.8,2.1l-1.8,2.6c-1.2-0.9-2.6-1.4-4-1.6
		v5.3h0.1c2.1,0.5,3.7,1.2,4.7,2c1,0.9,1.5,2.1,1.5,3.7c0,1.6-0.6,3-1.7,4c-1.2,1-2.7,1.6-4.6,1.7v2H7.9z M6,49.6
		c-0.5,0.4-0.7,0.9-0.7,1.6c0,0.6,0.2,1.1,0.6,1.5c0.4,0.4,1.1,0.7,2.1,1v-4.8C7.1,49,6.4,49.2,6,49.6z M11.8,61.9
		c0.5-0.4,0.8-1,0.8-1.6s-0.2-1.2-0.6-1.6c-0.4-0.4-1.2-0.7-2.3-1.1v5C10.6,62.6,11.3,62.3,11.8,61.9z"/>
	<path fill="#FFFFFF" d="M27.6,63c1.7,0,3-0.6,3.8-1.8c0.8-1.2,1.2-2.8,1.3-4.8c-0.5,0.5-1.1,1-2,1.5c-0.9,0.5-1.8,0.7-2.9,0.7
		c-1.8,0-3.2-0.6-4.4-1.8s-1.8-2.7-1.8-4.6c0-1.9,0.6-3.5,1.9-4.7c1.3-1.2,2.9-1.8,4.8-1.8c3.1,0,5.3,1.4,6.5,4.2
		c0.7,1.6,1,3.4,1,5.4c0,2-0.2,3.7-0.6,5c-0.4,1.3-1,2.4-1.8,3.2c-1.5,1.5-3.2,2.3-5.4,2.3c-2.1,0-4-0.7-5.8-2l1.7-2.4
		c0.4,0.4,1,0.7,1.7,1C26.4,62.8,27,63,27.6,63z M28.2,55.7c1.1,0,2.1-0.3,2.8-0.9s1.1-1.4,1.1-2.4s-0.4-1.9-1.1-2.6
		c-0.7-0.7-1.6-1.1-2.7-1.1c-1.1,0-2,0.3-2.7,1c-0.7,0.6-1.1,1.5-1.1,2.5c0,1,0.3,1.9,1,2.5C26.2,55.3,27.1,55.7,28.2,55.7z"/>
	<path fill="#FFFFFF" d="M42.1,63.9c0-0.6,0.2-1.1,0.6-1.5c0.4-0.4,0.9-0.6,1.5-0.6c0.6,0,1,0.2,1.5,0.6s0.6,0.9,0.6,1.4
		s-0.3,1.2-0.8,2l-1.7,2.8h-1.6l1-2.9C42.5,65.4,42.1,64.8,42.1,63.9z"/>
	<path fill="#FFFFFF" d="M54.6,63.2c-1.3-1.8-2-4.3-2-7.4s0.7-5.5,2-7.4c1.3-1.8,3.3-2.8,6-2.8c2.7,0,4.7,0.9,6,2.8
		c1.3,1.8,2,4.3,2,7.4s-0.7,5.5-2,7.4c-1.3,1.8-3.3,2.8-6,2.8C57.9,65.9,55.9,65,54.6,63.2z M56.9,50.5c-0.8,1.3-1.2,3.1-1.2,5.3
		s0.4,3.9,1.2,5.3c0.8,1.3,2,2,3.6,2s2.8-0.7,3.6-2c0.8-1.3,1.1-3.1,1.1-5.3c0-2.2-0.4-4-1.1-5.3c-0.8-1.3-2-2-3.6-2
		S57.7,49.1,56.9,50.5z"/>
	<path fill="#FFFFFF" d="M76.6,63.2c-1.3-1.8-2-4.3-2-7.4s0.7-5.5,2-7.4c1.3-1.8,3.3-2.8,6-2.8c2.7,0,4.7,0.9,6,2.8
		c1.3,1.8,2,4.3,2,7.4s-0.7,5.5-2,7.4c-1.3,1.8-3.3,2.8-6,2.8C80,65.9,78,65,76.6,63.2z M79,50.5c-0.8,1.3-1.2,3.1-1.2,5.3
		s0.4,3.9,1.2,5.3c0.8,1.3,2,2,3.6,2s2.8-0.7,3.6-2c0.8-1.3,1.1-3.1,1.1-5.3c0-2.2-0.4-4-1.1-5.3c-0.8-1.3-2-2-3.6-2
		S79.8,49.1,79,50.5z"/>
	<path fill="#FFFFFF" d="M98.7,63.2c-1.3-1.8-2-4.3-2-7.4s0.7-5.5,2-7.4c1.3-1.8,3.3-2.8,6-2.8c2.7,0,4.7,0.9,6,2.8
		c1.3,1.8,2,4.3,2,7.4s-0.7,5.5-2,7.4c-1.3,1.8-3.3,2.8-6,2.8C102,65.9,100,65,98.7,63.2z M101.1,50.5c-0.8,1.3-1.2,3.1-1.2,5.3
		s0.4,3.9,1.2,5.3c0.8,1.3,2,2,3.6,2s2.8-0.7,3.6-2c0.8-1.3,1.1-3.1,1.1-5.3c0-2.2-0.4-4-1.1-5.3c-0.8-1.3-2-2-3.6-2
		S101.8,49.1,101.1,50.5z"/>
	<path fill="#FFFFFF" d="M119.3,65.3c-0.4-0.4-0.6-0.9-0.6-1.5s0.2-1.1,0.6-1.5c0.4-0.4,0.9-0.6,1.5-0.6c0.6,0,1.1,0.2,1.5,0.6
		c0.4,0.4,0.6,0.9,0.6,1.5s-0.2,1.1-0.6,1.5c-0.4,0.4-0.9,0.6-1.5,0.6C120.2,65.9,119.7,65.7,119.3,65.3z"/>
	<path fill="#FFFFFF" d="M0.8,91.7h7.1v19.6H4.8V94.7h-4V91.7z"/>
	<path fill="#FFFFFF" d="M39.9,93.4c1.4,1.1,2,2.9,2,5.3s-0.7,4.1-2.1,5.2c-1.4,1.1-3.5,1.7-6.4,1.7H30v5.7h-3.3V91.7h6.7
		C36.3,91.7,38.5,92.3,39.9,93.4z M37.5,101.5c0.7-0.7,1-1.7,1-3.1c0-1.4-0.4-2.3-1.3-2.9c-0.8-0.6-2.2-0.8-3.9-0.8H30v7.8h3.8
		C35.6,102.6,36.9,102.2,37.5,101.5z"/>
	<path fill="#FFFFFF" d="M48.6,91.7h3.3v19.6h-3.3V91.7z"/>
	<path fill="#FFFFFF" d="M67.5,94.7v16.5h-3.3V94.7h-5.9v-3h15.2v3H67.5z"/>
	<path fill="#FFFFFF" d="M88.8,108.3c1.1,0,2.1-0.2,2.9-0.6c0.8-0.4,1.7-1,2.6-1.8l2.1,2.2c-2.1,2.3-4.6,3.4-7.5,3.4
		c-3,0-5.4-1-7.4-2.9s-2.9-4.3-2.9-7.2s1-5.3,3-7.3c2-1.9,4.5-2.9,7.5-2.9s5.6,1.1,7.6,3.4l-2.1,2.3C93.7,96,92.8,95.4,92,95
		c-0.8-0.4-1.8-0.5-2.9-0.5c-2,0-3.6,0.6-5,1.9s-2,2.9-2,4.9s0.7,3.7,2,5C85.4,107.6,87,108.3,88.8,108.3z"/>
	<path fill="#FFFFFF" d="M103.3,111.3V91.7h3.3v8.5h9.7v-8.5h3.3v19.6h-3.3v-8h-9.7v8H103.3z"/>
	<path fill="#FFFFFF" d="M147.2,108.3c1.1,0,2.1-0.2,2.9-0.6c0.8-0.4,1.7-1,2.6-1.8l2.1,2.2c-2.1,2.3-4.6,3.4-7.5,3.4
		c-3,0-5.4-1-7.4-2.9s-2.9-4.3-2.9-7.2s1-5.3,3-7.3c2-1.9,4.5-2.9,7.5-2.9s5.6,1.1,7.6,3.4l-2.1,2.3c-0.9-0.9-1.8-1.5-2.6-1.9
		c-0.8-0.4-1.8-0.5-2.9-0.5c-2,0-3.6,0.6-5,1.9s-2,2.9-2,4.9s0.7,3.7,2,5C143.8,107.6,145.4,108.3,147.2,108.3z"/>
	<path fill="#FFFFFF" d="M177.7,108.6c-2,1.9-4.4,2.9-7.3,2.9s-5.4-1-7.3-2.9c-2-1.9-3-4.3-3-7.2c0-2.9,1-5.3,3-7.2
		c2-1.9,4.4-2.9,7.3-2.9s5.4,1,7.3,2.9c2,1.9,3,4.3,3,7.2C180.6,104.3,179.6,106.7,177.7,108.6z M175.2,96.3c-1.3-1.4-3-2.1-4.9-2.1
		s-3.6,0.7-4.9,2.1c-1.3,1.4-2,3.1-2,5s0.7,3.6,2,5c1.3,1.4,3,2.1,4.9,2.1s3.6-0.7,4.9-2.1c1.3-1.4,2-3.1,2-5S176.6,97.7,175.2,96.3
		z"/>
	<path fill="#FFFFFF" d="M190.9,111.3h-3.3V91.7h5.2l5.9,12.3l5.9-12.3h5.1v19.6h-3.3V96l-6.8,13.6h-1.8L190.9,96V111.3z"/>
	<path fill="#FFFFFF" d="M231.1,93.4c1.4,1.1,2,2.9,2,5.3s-0.7,4.1-2.1,5.2c-1.4,1.1-3.5,1.7-6.4,1.7h-3.5v5.7h-3.3V91.7h6.7
		C227.6,91.7,229.8,92.3,231.1,93.4z M228.8,101.5c0.7-0.7,1-1.7,1-3.1c0-1.4-0.4-2.3-1.3-2.9c-0.8-0.6-2.2-0.8-3.9-0.8h-3.4v7.8
		h3.8C226.9,102.6,228.1,102.2,228.8,101.5z"/>
	<path fill="#FFFFFF" d="M253.6,91.7v3.1h-10.4v5.2h9.4v2.9h-9.4v5.2H254v3.1h-14.1V91.7H253.6z"/>
	<path fill="#FFFFFF" d="M268.4,94.7v16.5h-3.3V94.7h-5.9v-3h15.2v3H268.4z"/>
	<path fill="#FFFFFF" d="M280.7,91.7h3.3v19.6h-3.3V91.7z"/>
	<path fill="#FFFFFF" d="M299.6,94.7v16.5h-3.3V94.7h-5.9v-3h15.2v3H299.6z"/>
	<path fill="#FFFFFF" d="M311.9,91.7h3.3v19.6h-3.3V91.7z"/>
	<path fill="#FFFFFF" d="M339.9,108.6c-2,1.9-4.4,2.9-7.3,2.9s-5.4-1-7.3-2.9c-2-1.9-3-4.3-3-7.2c0-2.9,1-5.3,3-7.2
		c2-1.9,4.4-2.9,7.3-2.9s5.4,1,7.3,2.9c2,1.9,3,4.3,3,7.2C342.8,104.3,341.8,106.7,339.9,108.6z M337.4,96.3c-1.3-1.4-3-2.1-4.9-2.1
		s-3.6,0.7-4.9,2.1c-1.3,1.4-2,3.1-2,5s0.7,3.6,2,5c1.3,1.4,3,2.1,4.9,2.1s3.6-0.7,4.9-2.1c1.3-1.4,2-3.1,2-5S338.8,97.7,337.4,96.3
		z"/>
	<path fill="#FFFFFF" d="M364.5,91.7h3.3v19.6h-3.6L353.1,97v14.3h-3.3V91.7h3.3l11.4,14.6V91.7z"/>
	<path fill="#FFFFFF" d="M375.7,110.9c-0.4-0.4-0.6-0.9-0.6-1.5c0-0.6,0.2-1.1,0.6-1.5c0.4-0.4,0.9-0.6,1.5-0.6s1.1,0.2,1.5,0.6
		s0.6,0.9,0.6,1.5c0,0.6-0.2,1.1-0.6,1.5c-0.4,0.4-0.9,0.6-1.5,0.6S376.1,111.3,375.7,110.9z"/>
	<path fill="#FCBE31" d="M3.9,153.7l-1.4,3.2H0l6.2-14h2.5l6.2,14h-2.5l-1.4-3.2H3.9z M10,151.5l-2.5-5.8l-2.5,5.8H10z"/>
	<path fill="#FCBE31" d="M23,145.1v11.8h-2.4v-11.8h-4.2v-2.2h10.8v2.2H23z"/>
	<path fill="#FCBE31" d="M47.4,152.4c0.9,1,2.1,1.6,3.6,1.6c1.5,0,2.7-0.5,3.6-1.6c0.9-1,1.3-2.5,1.3-4.3v-10.8h3.3v11
		c0,2.8-0.8,5-2.3,6.5s-3.5,2.3-6,2.3s-4.4-0.8-6-2.3c-1.5-1.5-2.3-3.7-2.3-6.5v-11h3.3v10.8C46.1,150,46.5,151.4,47.4,152.4z"/>
	<path fill="#FCBE31" d="M73.2,139.9c-1,0-1.8,0.2-2.4,0.6c-0.6,0.4-0.9,1-0.9,1.8c0,0.8,0.3,1.4,0.9,1.8c0.6,0.4,1.9,0.9,3.9,1.4
		c2,0.5,3.5,1.2,4.5,2c1,0.9,1.5,2.2,1.5,3.9s-0.6,3.1-1.9,4.2c-1.3,1.1-3,1.6-5.1,1.6c-3.1,0-5.8-1.1-8.1-3.2l2.1-2.5
		c2,1.7,4,2.6,6.2,2.6c1.1,0,1.9-0.2,2.5-0.7c0.6-0.5,0.9-1.1,0.9-1.8s-0.3-1.3-0.9-1.8c-0.6-0.4-1.6-0.8-3-1.1
		c-1.4-0.3-2.5-0.7-3.3-1c-0.7-0.3-1.4-0.7-2-1.1c-1.2-0.9-1.7-2.2-1.7-4s0.7-3.2,2-4.2c1.3-1,2.9-1.5,4.9-1.5
		c1.3,0,2.5,0.2,3.7,0.6c1.2,0.4,2.3,1,3.2,1.7l-1.8,2.5c-0.6-0.5-1.4-1-2.4-1.3C75.2,140.1,74.2,139.9,73.2,139.9z"/>
	<path fill="#FCBE31" d="M96.7,153.9c1.1,0,2.1-0.2,2.9-0.6c0.8-0.4,1.7-1,2.6-1.8l2.1,2.2c-2.1,2.3-4.6,3.4-7.5,3.4
		c-3,0-5.4-1-7.4-2.9s-2.9-4.3-2.9-7.2c0-2.9,1-5.3,3-7.3c2-1.9,4.5-2.9,7.5-2.9s5.6,1.1,7.6,3.4l-2.1,2.3c-0.9-0.9-1.8-1.5-2.6-1.9
		c-0.8-0.4-1.8-0.5-2.9-0.5c-2,0-3.6,0.6-5,1.9s-2,2.9-2,4.9c0,2,0.7,3.7,2,5C93.3,153.2,94.9,153.9,96.7,153.9z"/>
	<path fill="#FCBE31" d="M110.9,156.5c-0.4-0.4-0.6-0.9-0.6-1.5c0-0.6,0.2-1.1,0.6-1.5s0.9-0.6,1.5-0.6c0.6,0,1.1,0.2,1.5,0.6
		c0.4,0.4,0.6,0.9,0.6,1.5c0,0.6-0.2,1.1-0.6,1.5c-0.4,0.4-0.9,0.6-1.5,0.6C111.8,157.1,111.3,156.9,110.9,156.5z"/>
</g>
</svg>
